<?xml version="1.0" encoding="UTF-8"?>
<svg viewBox="0 0 640 480" xmlns="http://www.w3.org/2000/svg">
 <path d="m222.37 345.3c-7.2255-7.2255-7.0707-15.356 0.40427-21.236 5.0981-4.0102 9.0347-4.6464 28.753-4.6464 20.982 0 23.244 0.42337 27.72 5.1885 6.3859 6.7975 6.1704 13.896-0.62826 20.694-5.1152 5.1152-7.0952 5.5026-28.124 5.5026s-23.009-0.38736-28.124-5.5026zm77.678 1.4556c-1.9875-3.7136-1.5106-16.36 1.0988-29.138 0.5798-2.8393 4.4938-7.1918 8.6979-9.6723 5.0572-2.9838 8.8713-7.7243 11.271-14.009 3.4627-9.067 3.4038-10.098-1.2954-22.657-4.8197-12.882-4.8403-13.389-0.97955-24.125 5.1388-14.291 3.4452-26.479-5.3886-38.78-6.42-8.9398-6.7924-10.507-5.4799-23.064 1.1906-11.39 0.66937-14.668-3.3716-21.207-2.6289-4.2536-7.8015-18.21-11.495-31.014-5.42-18.79-6.7176-27.538-6.7288-45.362 0 0-0.84869-10.865 1.6845-16.986 1.2366-2.988 5.9237-12.717 5.9237-12.717 6.7139-6.7139 9.0111-7.6221 19.28-7.6221 10.268 0 12.566 0.9082 19.279 7.6221 5.7674 5.7674 7.6222 9.5333 7.6222 15.476 0 13.825 8.614 51.235 14.628 63.526 6.2594 12.794 19.166 25.344 33.571 32.643 15.95 8.0823 23.022 14.906 30.074 29.018 8.5631 18.974 8.1078 39.612 6.8668 60-0.055939 52.479-1.0981 56.831-17.999 75.166-13.402 14.539-23.157 16.95-68.59 16.95-32.897 0-36.718-0.39981-38.67-4.047zm-105.56-47.507c-12.976-10.294-13.005-22.942-0.61285-32.451 9.9888-3.7758 9.3104-5.431 50.854-5.667 18.724-0.49738 61.069 1.5841 61.348 22.192 0.27094 20.057-40.305 19.634-58.665 19.252-29.68 0.50464-49.591 0.38306-52.923-3.3266zm-5.3415-56.215c-3.8125-2.9989-5.9068-8.2386-5.9068-12.202 0-6.2528 6.9379-14.325 11.857-14.799 5.5494-0.53445 26.553-0.18088 48.242 0.14383 32.058 0.48004 61.24 1.4317 64.716 17.265-1.7123 11.113-12.163 14.238-65.032 14.238-45.134 0-48.317-0.27457-53.875-4.6463zm22.682-49.74c-6.063-10.557-6.3898-13.587-0.97916-22.039 0 0 4.6747-4.8685 7.348-5.9326 8.5312-3.3959 31.162-1.9815 31.162-1.9815 37.729 1.0472 41.536 10.218 41.736 19.961 0.3971 19.411-25.618 19.466-41.833 19.542 0 0-22.685-0.74585-30.548-3.963-3.3994-1.3909-6.8854-5.5875-6.8854-5.5875z" fill="#ffd4aa" stroke="#000" stroke-width="5"/>
</svg>
